Simulation
nRows=16
nColumns=15
endheader
time  TH_x TH_y TH_z SC_y  SC_z  SC_x  AC_y  AC_z  AC_x  GH_y  GH_z  GH_yy  EL_x  PS_y
2.8725  0.000000  0.000000  0.000000  -35.03919873731094  0.0026863824125915444  -23.962691596651354  37.73157059809731  22.399573726892232  15.341752527004404  39.919833889161104  7.337932696269565  -32.64157407420052  14.059242276855581  120.000000
2.92995  0.000000  0.000000  0.000000  -35.10232164438144  -0.02417128547886904  -23.20178778734336  38.17571579778777  22.417297973319318  14.944718095740917  50.92406131026323  6.34986764391628  -40.82444355351611  14.421284239115893  120.000000
2.9874  0.000000  0.000000  0.000000  -35.239696102643215  0.03024893636885069  -22.234481386904204  38.637076378549054  22.31459050341885  14.427437023090961  63.668343016147915  5.81825113976609  -51.197865889934675  14.868017571096315  120.000000
3.0448500000000003  0.000000  0.000000  0.000000  -35.42363535711022  0.16863312112115778  -21.107804076537843  39.080468605424635  22.085499453735984  13.817381113233466  76.35678545948375  5.687204252205285  -62.00444139088699  15.354298299782648  120.000000
3.1023  0.000000  0.000000  0.000000  -35.624596171565884  0.3842485557925221  -19.873742302972428  39.48727133711393  21.73772817489194  13.142867972962097  87.2536932430877  5.834085918950208  -71.49063912530819  15.83741088615761  120.000000
3.15975  0.000000  0.000000  0.000000  -35.81869907614499  0.6605446906201712  -18.58710677373407  39.8530013726336  21.29191857049288  12.434287302684725  95.63883894417545  6.117427186720541  -78.8791838600369  16.28755974465248  120.000000
3.2172  0.000000  0.000000  0.000000  -35.98965233035076  0.9709087931982253  -17.29819168143112  40.18154238664957  20.774095360899192  11.721464026110327  101.63701682878082  6.423999955666212  -84.2140409146085  16.69417753873577  120.000000
3.2746500000000003  0.000000  0.000000  0.000000  -36.12394578788705  1.2869268644815837  -16.04743531211675  40.48470911049301  20.20949711445033  11.027514218934945  105.68328643549883  6.686122409900436  -87.83890258346811  17.06496742566441  120.000000
3.3321  0.000000  0.000000  0.000000  -36.21111407390386  1.5838451999557557  -14.864982113566851  40.776040166725245  19.61948276031593  10.368693252342432  108.22114107034581  6.875227550188336  -90.10826899897883  17.416979469295274  120.000000
3.38955  0.000000  0.000000  0.000000  -36.24667259532494  1.8435170960475342  -13.77174438371394  41.06507762485467  19.019928894715026  9.754504389608407  109.6219223526306  6.98952507858003  -91.31904986750745  17.765486130978047  120.000000
3.447  0.000000  0.000000  0.000000  -36.23427963111716  2.0574866963912513  -12.780478969571396  41.35606665276124  18.42262651543388  9.189275921756334  110.17389472604896  7.045556675853958  -91.70764844653286  18.11945874165783  120.000000
3.5044500000000003  0.000000  0.000000  0.000000  -36.18544947870287  2.2234218933678274  -11.896022775712256  41.64586689306874  17.83754625555493  8.675423394659108  110.08902000008621  7.067544038292571  -91.45750070347215  18.4811818810482  120.000000
3.5619  0.000000  0.000000  0.000000  -36.114558219560244  2.343573589937703  -11.117653398747528  41.92570050335464  17.273797020086676  8.214288051877888  109.52645530320348  7.078440068975069  -90.71654861161342  18.84870891383442  120.000000
3.61935  0.000000  0.000000  0.000000  -36.03383718405604  2.424220443857828  -10.442640006635157  42.18486190485247  16.73980075295205  7.805374604449661  108.60904593430907  7.09610087205657  -89.60570933404045  19.219315340654337  120.000000
3.6768  0.000000  0.000000  0.000000  -35.94972133541797  2.4738016730754495  -9.86887467872639  42.41285419450086  16.242769410690535  7.445799536130404  107.42704277398154  7.132453488187713  -88.21624878230074  19.591329366378226  120.000000
3.7342500000000003  0.000000  0.000000  0.000000  -35.862755028639974  2.501049582447287  -9.395863618271228  42.59885462083613  15.78736455494636  7.130773356905195  106.03376609345193  7.193836153733289  -86.60156842055844  19.964623572367426  120.000000
